%FSLAX45Y45*%
G04 Gerber Fmt 4.5, Leading zero omitted, Abs format (unit mm)*
G04 Created by KiCad (PCBNEW (5.1.0)-1) date 2019-07-27 13:49:34*
%MOMM*%
%LPD*%
G04 APERTURE LIST*
%ADD10C,0.150000*%
%ADD11C,0.200000*%
%ADD12C,0.300000*%
G04 APERTURE END LIST*
D10*
X14795500Y-6286500D02*
X14795500Y-10541000D01*
X20637500Y-6286500D02*
X14795500Y-6286500D01*
X20637500Y-10541000D02*
X20637500Y-6286500D01*
X14795500Y-10541000D02*
X20637500Y-10541000D01*
D11*
X19914500Y-9818000D02*
X20344500Y-10248000D01*
X20344500Y-9818000D02*
X19914500Y-10248000D01*
X19914500Y-6579500D02*
X20344500Y-7009500D01*
X20344500Y-6579500D02*
X19914500Y-7009500D01*
X15088500Y-6579500D02*
X15518500Y-7009500D01*
X15518500Y-6579500D02*
X15088500Y-7009500D01*
D12*
X15074428Y-11014214D02*
X15074428Y-10714214D01*
X15145857Y-10714214D01*
X15188714Y-10728500D01*
X15217286Y-10757072D01*
X15231571Y-10785643D01*
X15245857Y-10842786D01*
X15245857Y-10885643D01*
X15231571Y-10942786D01*
X15217286Y-10971357D01*
X15188714Y-10999929D01*
X15145857Y-11014214D01*
X15074428Y-11014214D01*
X15374428Y-11014214D02*
X15374428Y-10814214D01*
X15374428Y-10871357D02*
X15388714Y-10842786D01*
X15403000Y-10828500D01*
X15431571Y-10814214D01*
X15460143Y-10814214D01*
X15560143Y-11014214D02*
X15560143Y-10814214D01*
X15560143Y-10714214D02*
X15545857Y-10728500D01*
X15560143Y-10742786D01*
X15574428Y-10728500D01*
X15560143Y-10714214D01*
X15560143Y-10742786D01*
X15745857Y-11014214D02*
X15717286Y-10999929D01*
X15703000Y-10971357D01*
X15703000Y-10714214D01*
X15903000Y-11014214D02*
X15874428Y-10999929D01*
X15860143Y-10971357D01*
X15860143Y-10714214D01*
X16245857Y-11014214D02*
X16245857Y-10714214D01*
X16345857Y-10928500D01*
X16445857Y-10714214D01*
X16445857Y-11014214D01*
X16717286Y-11014214D02*
X16717286Y-10857072D01*
X16703000Y-10828500D01*
X16674428Y-10814214D01*
X16617286Y-10814214D01*
X16588714Y-10828500D01*
X16717286Y-10999929D02*
X16688714Y-11014214D01*
X16617286Y-11014214D01*
X16588714Y-10999929D01*
X16574428Y-10971357D01*
X16574428Y-10942786D01*
X16588714Y-10914214D01*
X16617286Y-10899929D01*
X16688714Y-10899929D01*
X16717286Y-10885643D01*
X16860143Y-10814214D02*
X16860143Y-11114214D01*
X16860143Y-10828500D02*
X16888714Y-10814214D01*
X16945857Y-10814214D01*
X16974428Y-10828500D01*
X16988714Y-10842786D01*
X17003000Y-10871357D01*
X17003000Y-10957072D01*
X16988714Y-10985643D01*
X16974428Y-10999929D01*
X16945857Y-11014214D01*
X16888714Y-11014214D01*
X16860143Y-10999929D01*
X17131571Y-10985643D02*
X17145857Y-10999929D01*
X17131571Y-11014214D01*
X17117286Y-10999929D01*
X17131571Y-10985643D01*
X17131571Y-11014214D01*
X17131571Y-10828500D02*
X17145857Y-10842786D01*
X17131571Y-10857072D01*
X17117286Y-10842786D01*
X17131571Y-10828500D01*
X17131571Y-10857072D01*
X14358000Y-11293500D02*
X14788000Y-11723500D01*
X14788000Y-11293500D02*
X14358000Y-11723500D01*
X15203000Y-11444214D02*
X15203000Y-11644214D01*
X15131571Y-11329929D02*
X15060143Y-11544214D01*
X15245857Y-11544214D01*
X15360143Y-11615643D02*
X15374428Y-11629929D01*
X15360143Y-11644214D01*
X15345857Y-11629929D01*
X15360143Y-11615643D01*
X15360143Y-11644214D01*
X15474428Y-11344214D02*
X15660143Y-11344214D01*
X15560143Y-11458500D01*
X15603000Y-11458500D01*
X15631571Y-11472786D01*
X15645857Y-11487071D01*
X15660143Y-11515643D01*
X15660143Y-11587071D01*
X15645857Y-11615643D01*
X15631571Y-11629929D01*
X15603000Y-11644214D01*
X15517286Y-11644214D01*
X15488714Y-11629929D01*
X15474428Y-11615643D01*
X15845857Y-11344214D02*
X15874428Y-11344214D01*
X15903000Y-11358500D01*
X15917286Y-11372786D01*
X15931571Y-11401357D01*
X15945857Y-11458500D01*
X15945857Y-11529929D01*
X15931571Y-11587071D01*
X15917286Y-11615643D01*
X15903000Y-11629929D01*
X15874428Y-11644214D01*
X15845857Y-11644214D01*
X15817286Y-11629929D01*
X15803000Y-11615643D01*
X15788714Y-11587071D01*
X15774428Y-11529929D01*
X15774428Y-11458500D01*
X15788714Y-11401357D01*
X15803000Y-11372786D01*
X15817286Y-11358500D01*
X15845857Y-11344214D01*
X16074428Y-11644214D02*
X16074428Y-11444214D01*
X16074428Y-11472786D02*
X16088714Y-11458500D01*
X16117286Y-11444214D01*
X16160143Y-11444214D01*
X16188714Y-11458500D01*
X16203000Y-11487071D01*
X16203000Y-11644214D01*
X16203000Y-11487071D02*
X16217286Y-11458500D01*
X16245857Y-11444214D01*
X16288714Y-11444214D01*
X16317286Y-11458500D01*
X16331571Y-11487071D01*
X16331571Y-11644214D01*
X16474428Y-11644214D02*
X16474428Y-11444214D01*
X16474428Y-11472786D02*
X16488714Y-11458500D01*
X16517286Y-11444214D01*
X16560143Y-11444214D01*
X16588714Y-11458500D01*
X16603000Y-11487071D01*
X16603000Y-11644214D01*
X16603000Y-11487071D02*
X16617286Y-11458500D01*
X16645857Y-11444214D01*
X16688714Y-11444214D01*
X16717286Y-11458500D01*
X16731571Y-11487071D01*
X16731571Y-11644214D01*
X17317286Y-11329929D02*
X17060143Y-11715643D01*
X17703000Y-11344214D02*
X17731571Y-11344214D01*
X17760143Y-11358500D01*
X17774428Y-11372786D01*
X17788714Y-11401357D01*
X17803000Y-11458500D01*
X17803000Y-11529929D01*
X17788714Y-11587071D01*
X17774428Y-11615643D01*
X17760143Y-11629929D01*
X17731571Y-11644214D01*
X17703000Y-11644214D01*
X17674428Y-11629929D01*
X17660143Y-11615643D01*
X17645857Y-11587071D01*
X17631571Y-11529929D01*
X17631571Y-11458500D01*
X17645857Y-11401357D01*
X17660143Y-11372786D01*
X17674428Y-11358500D01*
X17703000Y-11344214D01*
X17931571Y-11615643D02*
X17945857Y-11629929D01*
X17931571Y-11644214D01*
X17917286Y-11629929D01*
X17931571Y-11615643D01*
X17931571Y-11644214D01*
X18231571Y-11644214D02*
X18060143Y-11644214D01*
X18145857Y-11644214D02*
X18145857Y-11344214D01*
X18117286Y-11387071D01*
X18088714Y-11415643D01*
X18060143Y-11429929D01*
X18488714Y-11344214D02*
X18431571Y-11344214D01*
X18403000Y-11358500D01*
X18388714Y-11372786D01*
X18360143Y-11415643D01*
X18345857Y-11472786D01*
X18345857Y-11587071D01*
X18360143Y-11615643D01*
X18374428Y-11629929D01*
X18403000Y-11644214D01*
X18460143Y-11644214D01*
X18488714Y-11629929D01*
X18503000Y-11615643D01*
X18517286Y-11587071D01*
X18517286Y-11515643D01*
X18503000Y-11487071D01*
X18488714Y-11472786D01*
X18460143Y-11458500D01*
X18403000Y-11458500D01*
X18374428Y-11472786D01*
X18360143Y-11487071D01*
X18345857Y-11515643D01*
X18660143Y-11644214D02*
X18717286Y-11644214D01*
X18745857Y-11629929D01*
X18760143Y-11615643D01*
X18788714Y-11572786D01*
X18803000Y-11515643D01*
X18803000Y-11401357D01*
X18788714Y-11372786D01*
X18774428Y-11358500D01*
X18745857Y-11344214D01*
X18688714Y-11344214D01*
X18660143Y-11358500D01*
X18645857Y-11372786D01*
X18631571Y-11401357D01*
X18631571Y-11472786D01*
X18645857Y-11501357D01*
X18660143Y-11515643D01*
X18688714Y-11529929D01*
X18745857Y-11529929D01*
X18774428Y-11515643D01*
X18788714Y-11501357D01*
X18803000Y-11472786D01*
X18917286Y-11344214D02*
X18917286Y-11401357D01*
X19031571Y-11344214D02*
X19031571Y-11401357D01*
X19474428Y-11758500D02*
X19460143Y-11744214D01*
X19431571Y-11701357D01*
X19417286Y-11672786D01*
X19403000Y-11629929D01*
X19388714Y-11558500D01*
X19388714Y-11501357D01*
X19403000Y-11429929D01*
X19417286Y-11387071D01*
X19431571Y-11358500D01*
X19460143Y-11315643D01*
X19474428Y-11301357D01*
X19560143Y-11344214D02*
X19745857Y-11344214D01*
X19645857Y-11458500D01*
X19688714Y-11458500D01*
X19717286Y-11472786D01*
X19731571Y-11487071D01*
X19745857Y-11515643D01*
X19745857Y-11587071D01*
X19731571Y-11615643D01*
X19717286Y-11629929D01*
X19688714Y-11644214D01*
X19603000Y-11644214D01*
X19574428Y-11629929D01*
X19560143Y-11615643D01*
X20103000Y-11644214D02*
X20103000Y-11344214D01*
X20231571Y-11644214D02*
X20231571Y-11487071D01*
X20217286Y-11458500D01*
X20188714Y-11444214D01*
X20145857Y-11444214D01*
X20117286Y-11458500D01*
X20103000Y-11472786D01*
X20417286Y-11644214D02*
X20388714Y-11629929D01*
X20374428Y-11615643D01*
X20360143Y-11587071D01*
X20360143Y-11501357D01*
X20374428Y-11472786D01*
X20388714Y-11458500D01*
X20417286Y-11444214D01*
X20460143Y-11444214D01*
X20488714Y-11458500D01*
X20503000Y-11472786D01*
X20517286Y-11501357D01*
X20517286Y-11587071D01*
X20503000Y-11615643D01*
X20488714Y-11629929D01*
X20460143Y-11644214D01*
X20417286Y-11644214D01*
X20688714Y-11644214D02*
X20660143Y-11629929D01*
X20645857Y-11601357D01*
X20645857Y-11344214D01*
X20917286Y-11629929D02*
X20888714Y-11644214D01*
X20831571Y-11644214D01*
X20803000Y-11629929D01*
X20788714Y-11601357D01*
X20788714Y-11487071D01*
X20803000Y-11458500D01*
X20831571Y-11444214D01*
X20888714Y-11444214D01*
X20917286Y-11458500D01*
X20931571Y-11487071D01*
X20931571Y-11515643D01*
X20788714Y-11544214D01*
X21045857Y-11629929D02*
X21074428Y-11644214D01*
X21131571Y-11644214D01*
X21160143Y-11629929D01*
X21174428Y-11601357D01*
X21174428Y-11587071D01*
X21160143Y-11558500D01*
X21131571Y-11544214D01*
X21088714Y-11544214D01*
X21060143Y-11529929D01*
X21045857Y-11501357D01*
X21045857Y-11487071D01*
X21060143Y-11458500D01*
X21088714Y-11444214D01*
X21131571Y-11444214D01*
X21160143Y-11458500D01*
X21274428Y-11758500D02*
X21288714Y-11744214D01*
X21317286Y-11701357D01*
X21331571Y-11672786D01*
X21345857Y-11629929D01*
X21360143Y-11558500D01*
X21360143Y-11501357D01*
X21345857Y-11429929D01*
X21331571Y-11387071D01*
X21317286Y-11358500D01*
X21288714Y-11315643D01*
X21274428Y-11301357D01*
X21817286Y-11758500D02*
X21803000Y-11744214D01*
X21774428Y-11701357D01*
X21760143Y-11672786D01*
X21745857Y-11629929D01*
X21731571Y-11558500D01*
X21731571Y-11501357D01*
X21745857Y-11429929D01*
X21760143Y-11387071D01*
X21774428Y-11358500D01*
X21803000Y-11315643D01*
X21817286Y-11301357D01*
X21931571Y-11444214D02*
X21931571Y-11644214D01*
X21931571Y-11472786D02*
X21945857Y-11458500D01*
X21974428Y-11444214D01*
X22017286Y-11444214D01*
X22045857Y-11458500D01*
X22060143Y-11487071D01*
X22060143Y-11644214D01*
X22245857Y-11644214D02*
X22217286Y-11629929D01*
X22203000Y-11615643D01*
X22188714Y-11587071D01*
X22188714Y-11501357D01*
X22203000Y-11472786D01*
X22217286Y-11458500D01*
X22245857Y-11444214D01*
X22288714Y-11444214D01*
X22317286Y-11458500D01*
X22331571Y-11472786D01*
X22345857Y-11501357D01*
X22345857Y-11587071D01*
X22331571Y-11615643D01*
X22317286Y-11629929D01*
X22288714Y-11644214D01*
X22245857Y-11644214D01*
X22431571Y-11444214D02*
X22545857Y-11444214D01*
X22474428Y-11344214D02*
X22474428Y-11601357D01*
X22488714Y-11629929D01*
X22517286Y-11644214D01*
X22545857Y-11644214D01*
X22874428Y-11444214D02*
X22874428Y-11744214D01*
X22874428Y-11458500D02*
X22903000Y-11444214D01*
X22960143Y-11444214D01*
X22988714Y-11458500D01*
X23003000Y-11472786D01*
X23017286Y-11501357D01*
X23017286Y-11587071D01*
X23003000Y-11615643D01*
X22988714Y-11629929D01*
X22960143Y-11644214D01*
X22903000Y-11644214D01*
X22874428Y-11629929D01*
X23188714Y-11644214D02*
X23160143Y-11629929D01*
X23145857Y-11601357D01*
X23145857Y-11344214D01*
X23431571Y-11644214D02*
X23431571Y-11487071D01*
X23417286Y-11458500D01*
X23388714Y-11444214D01*
X23331571Y-11444214D01*
X23303000Y-11458500D01*
X23431571Y-11629929D02*
X23403000Y-11644214D01*
X23331571Y-11644214D01*
X23303000Y-11629929D01*
X23288714Y-11601357D01*
X23288714Y-11572786D01*
X23303000Y-11544214D01*
X23331571Y-11529929D01*
X23403000Y-11529929D01*
X23431571Y-11515643D01*
X23531571Y-11444214D02*
X23645857Y-11444214D01*
X23574428Y-11344214D02*
X23574428Y-11601357D01*
X23588714Y-11629929D01*
X23617286Y-11644214D01*
X23645857Y-11644214D01*
X23860143Y-11629929D02*
X23831571Y-11644214D01*
X23774428Y-11644214D01*
X23745857Y-11629929D01*
X23731571Y-11601357D01*
X23731571Y-11487071D01*
X23745857Y-11458500D01*
X23774428Y-11444214D01*
X23831571Y-11444214D01*
X23860143Y-11458500D01*
X23874428Y-11487071D01*
X23874428Y-11515643D01*
X23731571Y-11544214D01*
X24131571Y-11644214D02*
X24131571Y-11344214D01*
X24131571Y-11629929D02*
X24103000Y-11644214D01*
X24045857Y-11644214D01*
X24017286Y-11629929D01*
X24003000Y-11615643D01*
X23988714Y-11587071D01*
X23988714Y-11501357D01*
X24003000Y-11472786D01*
X24017286Y-11458500D01*
X24045857Y-11444214D01*
X24103000Y-11444214D01*
X24131571Y-11458500D01*
X24245857Y-11758500D02*
X24260143Y-11744214D01*
X24288714Y-11701357D01*
X24303000Y-11672786D01*
X24317286Y-11629929D01*
X24331571Y-11558500D01*
X24331571Y-11501357D01*
X24317286Y-11429929D01*
X24303000Y-11387071D01*
X24288714Y-11358500D01*
X24260143Y-11315643D01*
X24245857Y-11301357D01*
M02*
