M48
; DRILL file {KiCad (5.1.0)-1} date 8/10/2019 6:50:00 PM
; FORMAT={-:-/ absolute / inch / decimal}
; #@! TF.CreationDate,2019-08-10T18:50:00-05:00
; #@! TF.GenerationSoftware,Kicad,Pcbnew,(5.1.0)-1
; #@! TF.FileFunction,Plated,1,2,PTH
FMAT,2
INCH
T1C0.0130
T2C0.0394
T3C0.0472
T4C0.0906
%
G90
G05
T1
X6.05Y-3.125
X6.175Y-2.925
X6.3Y-3.125
X6.32Y-3.78
X6.32Y-3.92
X6.575Y-2.75
X6.575Y-2.85
X6.575Y-2.95
X6.575Y-3.05
X6.575Y-3.15
X6.575Y-3.275
X6.675Y-2.75
X6.775Y-2.75
X6.85Y-2.75
X6.85Y-3.25
X6.85Y-3.5
X6.925Y-2.75
X7.025Y-2.75
X7.125Y-2.75
X7.125Y-2.85
X7.125Y-2.95
X7.125Y-3.05
X7.25Y-4.075
X7.375Y-3.3
X7.375Y-3.575
X7.45Y-2.95
T2
X7.625Y-3.1701
X7.625Y-3.2701
X7.625Y-3.35
X7.625Y-3.45
X7.15Y-3.175
X7.15Y-3.275
T3
X6.025Y-3.85
X6.025Y-3.9878
X7.4122Y-3.95
X7.55Y-3.95
T4
X7.7301Y-3.05
X7.7301Y-3.5902
T0
M30
